<?xml version="1.0" encoding="utf-8"?>
<!-- Generator: Adobe Illustrator 25.2.3, SVG Export Plug-In . SVG Version: 6.00 Build 0)  -->
<svg version="1.1" id="Calque_1" xmlns="http://www.w3.org/2000/svg" xmlns:xlink="http://www.w3.org/1999/xlink" x="0px" y="0px"
	 viewBox="0 0 77.4 77.4" style="enable-background:new 0 0 77.4 77.4;" xml:space="preserve">
<style type="text/css">
	.st0{fill:#86C3D0;}
	.st1{fill:#FFFFFF;}
</style>
<circle class="st0" cx="38.7" cy="38.7" r="29.5"/>
<g>
	<path class="st1" d="M57.3,55.8h-9.2c-0.3,0-0.5-0.2-0.7-0.4l-13-27.1H29c-0.4,0-0.7-0.3-0.7-0.7v-8.2c0-0.4,0.3-0.7,0.7-0.7h11.5
		c0.3,0,0.5,0.2,0.7,0.4L54,46.1h3.3c0.4,0,0.7,0.3,0.7,0.7V55C58,55.4,57.7,55.8,57.3,55.8z M48.6,54.3h8v-6.7h-3
		c-0.3,0-0.5-0.2-0.7-0.4L40,20H29.7v6.7h5.2c0.3,0,0.5,0.2,0.7,0.4L48.6,54.3z"/>
	<path class="st1" d="M32.7,55.8H23c-0.3,0-0.5-0.1-0.6-0.3c-0.1-0.2-0.2-0.5,0-0.7l10.1-21.1c0.1-0.3,0.4-0.4,0.7-0.4
		c0.3,0,0.5,0.2,0.7,0.4l4.8,10c0.1,0.2,0.1,0.4,0,0.6l-5.3,11.2C33.3,55.6,33,55.8,32.7,55.8z M24.2,54.3h8l4.9-10.4l-4-8.3
		L24.2,54.3z"/>
</g>
</svg>
